<svg width="24" height="24" viewBox="0 0 24 24" fill="none" xmlns="http://www.w3.org/2000/svg">
<path fill-rule="evenodd" clip-rule="evenodd" d="M6.86 7.80952C7.88725 7.80952 8.72 6.95673 8.72 5.90476C8.72 4.85279 7.88725 4 6.86 4C5.83275 4 5 4.85279 5 5.90476C5 6.95673 5.83275 7.80952 6.86 7.80952ZM8.375 9.33333H5.375C5.16789 9.33333 5 9.50389 5 9.71429V19.619C5 19.8294 5.16789 20 5.375 20H8.375C8.58211 20 8.75 19.8294 8.75 19.619V9.71429C8.75 9.50389 8.58211 9.33333 8.375 9.33333ZM19.625 20H17.375C17.2756 20 17.1802 19.9599 17.1098 19.8884C17.0395 19.817 17 19.7201 17 19.6191V13.9048C17 13.3996 16.8025 12.9151 16.4508 12.5579C16.0992 12.2007 15.6223 12 15.125 12C14.6277 12 14.1508 12.2007 13.7992 12.5579C13.4476 12.9151 13.25 13.3996 13.25 13.9048V19.6191C13.25 19.7201 13.2105 19.817 13.1402 19.8884C13.0698 19.9599 12.9745 20 12.875 20H10.625C10.5256 20 10.4302 19.9599 10.3598 19.8884C10.2895 19.817 10.25 19.7201 10.25 19.6191V9.7143C10.25 9.61327 10.2895 9.51637 10.3598 9.44493C10.4302 9.37349 10.5256 9.33335 10.625 9.33335H12.875C12.9745 9.33335 13.0698 9.37349 13.1402 9.44493C13.2105 9.51637 13.25 9.61327 13.25 9.7143C13.2498 9.77811 13.2687 9.84047 13.3044 9.89299C13.3401 9.94551 13.3907 9.98567 13.4495 10.0081C13.5083 10.0305 13.5725 10.034 13.6334 10.0183C13.6942 10.0026 13.7489 9.96826 13.79 9.92002C14.0978 9.59896 14.4684 9.34698 14.8778 9.18032C15.2873 9.01366 15.7267 8.93602 16.1675 8.9524C18.4025 8.9524 20 10.3467 20 13.2191V19.6191C20 19.7201 19.9605 19.817 19.8902 19.8884C19.8198 19.9599 19.7245 20 19.625 20Z" fill="#0073B1"/>
</svg>
