<svg xmlns="http://www.w3.org/2000/svg" viewBox="0 0 198 179.39"><defs><style>.cls-1{opacity:0.5;}.cls-2,.cls-3{fill:#0d192a;}.cls-3,.cls-4,.cls-6{stroke:#d7cfc6;}.cls-3,.cls-4,.cls-6,.cls-8{stroke-miterlimit:10;}.cls-3,.cls-4{stroke-width:2px;}.cls-4,.cls-6,.cls-8{fill:none;}.cls-5{font-size:10.66px;fill:#d7cfc6;font-family:AmericanTypewriter, American Typewriter;letter-spacing:0.05em;}.cls-6{stroke-width:0.5px;}.cls-7{fill:#bc4327;}.cls-8{stroke:#0d192a;stroke-width:4px;}</style></defs><g id="Layer_5" data-name="Layer 5"><rect class="cls-2" width="198" height="179.39"/><polygon class="cls-3" points="64.03 114.65 74.69 103.99 85.35 114.65 96.02 103.99 106.68 114.65 117.34 103.99 128.01 114.65 128.01 45.34 80.02 45.34 64.03 61.34 64.03 114.65"/><polyline class="cls-4" points="64.03 61.34 80.02 61.34 80.02 45.34"/><text class="cls-5" transform="translate(74.57 73.75)">66A</text><line class="cls-6" x1="74.58" y1="82.5" x2="117.23" y2="82.5"/><line class="cls-6" x1="74.28" y1="77.46" x2="117.23" y2="77.46"/><line class="cls-6" x1="101.53" y1="71.54" x2="117.23" y2="71.54"/><line class="cls-6" x1="101.53" y1="66.21" x2="117.23" y2="66.21"/><line class="cls-6" x1="74.58" y1="88.13" x2="117.23" y2="88.13"/><circle class="cls-7" cx="125.34" cy="101.32" r="18.66"/><line class="cls-8" x1="117.64" y1="93.62" x2="133.63" y2="109.62"/><line class="cls-8" x1="117.64" y1="109.62" x2="133.63" y2="93.62"/><line class="cls-6" x1="74.86" y1="98.42" x2="90.55" y2="98.42"/><line class="cls-6" x1="74.86" y1="93.09" x2="90.55" y2="93.09"/></g></svg>