<svg width="24" height="24" viewBox="0 0 24 24" fill="none" xmlns="http://www.w3.org/2000/svg">
<path d="M21.3793 7.2792C21.4394 7.22921 21.4845 7.16352 21.5095 7.08943C21.5346 7.01534 21.5385 6.93576 21.521 6.85955C21.5035 6.78333 21.4652 6.71348 21.4103 6.65775C21.3554 6.60203 21.2862 6.56262 21.2103 6.54391L20.5426 6.37488C20.4819 6.35968 20.4253 6.33119 20.377 6.29146C20.3286 6.25173 20.2897 6.20176 20.263 6.14515C20.2363 6.08854 20.2225 6.02672 20.2226 5.96413C20.2228 5.90155 20.2368 5.83978 20.2637 5.78327L20.6356 5.03109C20.6707 4.9582 20.6842 4.87676 20.6744 4.79644C20.6646 4.71613 20.6319 4.64031 20.5803 4.57801C20.5287 4.5157 20.4602 4.46953 20.3831 4.44497C20.306 4.42042 20.2235 4.41851 20.1454 4.43948L18.4551 4.91277C18.3921 4.93114 18.3257 4.93459 18.2612 4.92285C18.1966 4.91112 18.1357 4.88452 18.0832 4.84515C17.3517 4.29656 16.4621 4 15.5477 4C14.427 4 13.3522 4.44521 12.5597 5.2377C11.7672 6.03018 11.322 7.10503 11.322 8.22577V8.53003C11.3223 8.58193 11.3036 8.63216 11.2693 8.67113C11.235 8.7101 11.1876 8.73509 11.136 8.74131C8.76115 9.02021 6.48769 7.81164 4.03674 4.98883C3.9835 4.93011 3.91509 4.88721 3.83905 4.86484C3.76301 4.84248 3.68227 4.84151 3.60571 4.86206C3.53674 4.89376 3.47759 4.94345 3.43446 5.00591C3.39133 5.06837 3.36582 5.1413 3.36062 5.21702C3.0221 6.60759 3.15896 8.07146 3.74939 9.37518C3.76686 9.40976 3.77448 9.44847 3.77143 9.4871C3.76838 9.52572 3.75477 9.56276 3.73209 9.59416C3.7094 9.62557 3.67852 9.65014 3.64282 9.66517C3.60712 9.68021 3.56797 9.68515 3.52965 9.67943L2.58308 9.4935C2.51585 9.48269 2.44701 9.48829 2.38242 9.50981C2.31783 9.53133 2.25939 9.56814 2.21208 9.61711C2.16478 9.66607 2.13 9.72575 2.11072 9.79104C2.09144 9.85634 2.08822 9.92533 2.10134 9.99214C2.17431 10.6408 2.39222 11.2646 2.73894 11.8176C3.08566 12.3706 3.55231 12.8386 4.10435 13.1868C4.14007 13.2041 4.1702 13.2311 4.19128 13.2648C4.21236 13.2984 4.22354 13.3373 4.22354 13.377C4.22354 13.4167 4.21236 13.4556 4.19128 13.4892C4.1702 13.5228 4.14007 13.5498 4.10435 13.5671L3.65642 13.7446C3.60202 13.7664 3.55276 13.7993 3.51175 13.8412C3.47074 13.8831 3.4389 13.933 3.41823 13.9879C3.39757 14.0427 3.38853 14.1012 3.39171 14.1598C3.39489 14.2183 3.4102 14.2755 3.43668 14.3278C3.68439 14.8698 4.05986 15.3437 4.5309 15.7087C5.00194 16.0738 5.55449 16.3191 6.14117 16.4238C6.18196 16.4386 6.2172 16.4656 6.24211 16.5011C6.26701 16.5366 6.28038 16.579 6.28038 16.6224C6.28038 16.6658 6.26701 16.7081 6.24211 16.7436C6.2172 16.7792 6.18196 16.8062 6.14117 16.821C4.99207 17.2962 3.75891 17.5348 2.51546 17.5225C2.40339 17.5 2.287 17.5231 2.1919 17.5865C2.0968 17.6499 2.03079 17.7484 2.00837 17.8605C1.98596 17.9726 2.00898 18.089 2.07238 18.1841C2.13578 18.2792 2.23436 18.3452 2.34643 18.3676C4.4995 19.3888 6.84365 19.9446 9.22599 19.9988C11.3215 20.0307 13.3797 19.4427 15.1421 18.3085C16.5917 17.3408 17.7794 16.0295 18.5993 14.4915C19.4192 12.9534 19.8458 11.2364 19.8411 9.4935V8.75822C19.8416 8.69685 19.8555 8.63633 19.8818 8.58087C19.9081 8.52541 19.9461 8.47633 19.9932 8.43706L21.3793 7.2792Z" fill="#1DA1F2"/>
</svg>
