<svg xmlns="http://www.w3.org/2000/svg" viewBox="0 0 658.87 231.67"><defs><style>.cls-1{opacity:0.5;}.cls-2,.cls-7{fill:#0d192a;}.cls-3{font-size:45px;letter-spacing:0.05em;}.cls-3,.cls-4,.cls-9{fill:#d7cfc6;}.cls-3,.cls-9{font-family:AmericanTypewriter, American Typewriter;}.cls-4{font-size:18px;font-family:FuturaBT-Light, Futura Lt BT;font-weight:300;letter-spacing:1.05em;}.cls-5{letter-spacing:1.03em;}.cls-6{letter-spacing:1.05em;}.cls-10,.cls-7,.cls-8{stroke:#d7cfc6;}.cls-10,.cls-12,.cls-7,.cls-8{stroke-miterlimit:10;}.cls-7,.cls-8{stroke-width:2px;}.cls-10,.cls-12,.cls-8{fill:none;}.cls-9{font-size:20.47px;letter-spacing:0.05em;}.cls-10{stroke-width:0.5px;}.cls-11{fill:#bc4327;}.cls-12{stroke:#0d192a;stroke-width:4px;}</style></defs><g id="Layer_5" data-name="Layer 5"><rect class="cls-2" width="658.87" height="231.67"/><text class="cls-3" transform="translate(336.48 111.64)">ZOMBIE</text><text class="cls-4" transform="translate(338.22 139.67)">TR<tspan class="cls-5" x="56.25" y="0">A</tspan><tspan class="cls-6" x="85.58" y="0">CKER</tspan></text><polygon class="cls-7" points="142.76 178.39 163.23 157.92 183.7 178.39 204.17 157.92 224.64 178.39 245.11 157.92 265.57 178.39 265.57 45.34 173.47 45.34 142.76 76.05 142.76 178.39"/><polyline class="cls-8" points="142.76 76.05 173.47 76.05 173.47 45.34"/><text class="cls-9" transform="translate(163.01 99.88)">66A</text><line class="cls-10" x1="163.01" y1="116.66" x2="244.88" y2="116.66"/><line class="cls-10" x1="162.44" y1="107" x2="244.88" y2="107"/><line class="cls-10" x1="214.75" y1="95.63" x2="244.88" y2="95.63"/><line class="cls-10" x1="214.75" y1="85.39" x2="244.88" y2="85.39"/><line class="cls-10" x1="163.01" y1="127.47" x2="244.88" y2="127.47"/><circle class="cls-11" cx="260.46" cy="152.8" r="35.82"/><line class="cls-12" x1="245.68" y1="138.02" x2="276.38" y2="168.72"/><line class="cls-12" x1="245.68" y1="168.72" x2="276.38" y2="138.02"/><line class="cls-10" x1="163.55" y1="147.23" x2="193.68" y2="147.23"/><line class="cls-10" x1="163.55" y1="136.99" x2="193.68" y2="136.99"/></g></svg>